<svg xmlns="http://www.w3.org/2000/svg" viewBox="0 0 64 64" width="256" height="256"><defs><linearGradient id="t" x1="0" y1="0" x2="1" y2="1"><stop offset="0" stop-color="#0B2540"/><stop offset="1" stop-color="#14507F"/></linearGradient></defs><rect width="64" height="64" rx="15" fill="url(#t)"/><polygon points="32.00,14.00 47.59,23.00 47.59,41.00 32.00,50.00 16.41,41.00 16.41,23.00" fill="none" stroke="#fff" stroke-width="3.6" stroke-linejoin="round"/><circle cx="32.00" cy="19.88" r="1.8" fill="#fff" fill-opacity=".85"/><circle cx="21.50" cy="25.94" r="1.8" fill="#fff" fill-opacity=".85"/><circle cx="28.50" cy="25.94" r="1.8" fill="#fff" fill-opacity=".85"/><circle cx="35.50" cy="25.94" r="1.8" fill="#fff" fill-opacity=".85"/><circle cx="42.50" cy="25.94" r="1.8" fill="#fff" fill-opacity=".85"/><circle cx="25.00" cy="32.00" r="1.8" fill="#fff" fill-opacity=".85"/><circle cx="32.00" cy="32.00" r="1.8" fill="#fff" fill-opacity=".85"/><circle cx="39.00" cy="32.00" r="1.8" fill="#fff" fill-opacity=".85"/><circle cx="21.50" cy="38.06" r="1.8" fill="#fff" fill-opacity=".85"/><circle cx="28.50" cy="38.06" r="1.8" fill="#fff" fill-opacity=".85"/><circle cx="35.50" cy="38.06" r="1.8" fill="#fff" fill-opacity=".85"/><circle cx="42.50" cy="38.06" r="1.8" fill="#fff" fill-opacity=".85"/><circle cx="32.00" cy="44.12" r="1.8" fill="#fff" fill-opacity=".85"/><circle cx="39" cy="26" r="4" fill="none" stroke="#5CD0EA" stroke-width="2"/><circle cx="39" cy="26" r="1.9" fill="#5CD0EA"/></svg>